<svg xmlns="http://www.w3.org/2000/svg" version="1.1" xmlns:xlink="http://www.w3.org/1999/xlink" xmlns:svgjs="http://svgjs.dev/svgjs" width="1440" height="560" preserveAspectRatio="none" viewBox="0 0 1440 560"><g mask="url(&quot;#SvgjsMask1050&quot;)" fill="none"><rect width="1440" height="560" x="0" y="0" fill="url(&quot;#SvgjsLinearGradient1051&quot;)"></rect><path d="M-42.64 401.26L-42.64 401.26" stroke="#132e65" stroke-width="1.5"></path><path d="M-42.64 401.26L-39.65 535.07" stroke="#132e65" stroke-width="1.5"></path><path d="M-42.64 401.26L104.1 387.74" stroke="#132e65" stroke-width="1.5"></path><path d="M-42.64 401.26L110.38 531.68" stroke="#132e65" stroke-width="1.5"></path><path d="M-42.64 401.26L102.7 649.97" stroke="#132e65" stroke-width="1.5"></path><path d="M-39.65 535.07L-39.65 535.07" stroke="#132e65" stroke-width="1.5"></path><path d="M-39.65 535.07L110.38 531.68" stroke="#132e65" stroke-width="1.5"></path><path d="M-39.65 535.07L-41.7 698.04" stroke="#132e65" stroke-width="1.5"></path><path d="M-39.65 535.07L102.7 649.97" stroke="#132e65" stroke-width="1.5"></path><path d="M-39.65 535.07L104.1 387.74" stroke="#132e65" stroke-width="1.5"></path><path d="M-41.7 698.04L-41.7 698.04" stroke="#132e65" stroke-width="1.5"></path><path d="M-41.7 698.04L102.7 649.97" stroke="#132e65" stroke-width="1.5"></path><path d="M104.1 387.74L104.1 387.74" stroke="#132e65" stroke-width="1.5"></path><path d="M104.1 387.74L110.38 531.68" stroke="#132e65" stroke-width="1.5"></path><path d="M110.38 531.68L110.38 531.68" stroke="#132e65" stroke-width="1.5"></path><path d="M110.38 531.68L102.7 649.97" stroke="#132e65" stroke-width="1.5"></path><path d="M102.7 649.97L102.7 649.97" stroke="#132e65" stroke-width="1.5"></path><path d="M102.7 649.97L238.76 645.95" stroke="#132e65" stroke-width="1.5"></path><path d="M102.7 649.97L104.1 387.74" stroke="#132e65" stroke-width="1.5"></path><path d="M260 410.77L260 410.77" stroke="#132e65" stroke-width="1.5"></path><path d="M260 410.77L383.58 369.62" stroke="#132e65" stroke-width="1.5"></path><path d="M260 410.77L104.1 387.74" stroke="#132e65" stroke-width="1.5"></path><path d="M260 410.77L393.89 522.71" stroke="#132e65" stroke-width="1.5"></path><path d="M260 410.77L110.38 531.68" stroke="#132e65" stroke-width="1.5"></path><path d="M260 410.77L238.76 645.95" stroke="#132e65" stroke-width="1.5"></path><path d="M260 410.77L102.7 649.97" stroke="#132e65" stroke-width="1.5"></path><path d="M238.76 645.95L238.76 645.95" stroke="#132e65" stroke-width="1.5"></path><path d="M238.76 645.95L391.22 689.19" stroke="#132e65" stroke-width="1.5"></path><path d="M238.76 645.95L110.38 531.68" stroke="#132e65" stroke-width="1.5"></path><path d="M238.76 645.95L393.89 522.71" stroke="#132e65" stroke-width="1.5"></path><path d="M383.58 369.62L383.58 369.62" stroke="#132e65" stroke-width="1.5"></path><path d="M383.58 369.62L393.89 522.71" stroke="#132e65" stroke-width="1.5"></path><path d="M383.58 369.62L547.91 371.19" stroke="#132e65" stroke-width="1.5"></path><path d="M383.58 369.62L518.08 551.41" stroke="#132e65" stroke-width="1.5"></path><path d="M383.58 369.62L653.77 403.15" stroke="#132e65" stroke-width="1.5"></path><path d="M393.89 522.71L393.89 522.71" stroke="#132e65" stroke-width="1.5"></path><path d="M393.89 522.71L518.08 551.41" stroke="#132e65" stroke-width="1.5"></path><path d="M393.89 522.71L391.22 689.19" stroke="#132e65" stroke-width="1.5"></path><path d="M393.89 522.71L547.91 371.19" stroke="#132e65" stroke-width="1.5"></path><path d="M391.22 689.19L391.22 689.19" stroke="#132e65" stroke-width="1.5"></path><path d="M391.22 689.19L518.08 551.41" stroke="#132e65" stroke-width="1.5"></path><path d="M547.91 371.19L547.91 371.19" stroke="#132e65" stroke-width="1.5"></path><path d="M547.91 371.19L653.77 403.15" stroke="#132e65" stroke-width="1.5"></path><path d="M547.91 371.19L518.08 551.41" stroke="#132e65" stroke-width="1.5"></path><path d="M547.91 371.19L711.12 512.26" stroke="#132e65" stroke-width="1.5"></path><path d="M518.08 551.41L518.08 551.41" stroke="#132e65" stroke-width="1.5"></path><path d="M518.08 551.41L648.6 649.69" stroke="#132e65" stroke-width="1.5"></path><path d="M653.77 403.15L653.77 403.15" stroke="#132e65" stroke-width="1.5"></path><path d="M653.77 403.15L711.12 512.26" stroke="#132e65" stroke-width="1.5"></path><path d="M653.77 403.15L812.09 387.2" stroke="#132e65" stroke-width="1.5"></path><path d="M653.77 403.15L518.08 551.41" stroke="#132e65" stroke-width="1.5"></path><path d="M653.77 403.15L804.17 250.22" stroke="#132e65" stroke-width="1.5"></path><path d="M711.12 512.26L711.12 512.26" stroke="#132e65" stroke-width="1.5"></path><path d="M711.12 512.26L848.09 555.23" stroke="#132e65" stroke-width="1.5"></path><path d="M711.12 512.26L648.6 649.69" stroke="#132e65" stroke-width="1.5"></path><path d="M711.12 512.26L812.09 387.2" stroke="#132e65" stroke-width="1.5"></path><path d="M711.12 512.26L518.08 551.41" stroke="#132e65" stroke-width="1.5"></path><path d="M648.6 649.69L648.6 649.69" stroke="#132e65" stroke-width="1.5"></path><path d="M648.6 649.69L853.18 706.22" stroke="#132e65" stroke-width="1.5"></path><path d="M804.17 250.22L804.17 250.22" stroke="#132e65" stroke-width="1.5"></path><path d="M804.17 250.22L812.09 387.2" stroke="#132e65" stroke-width="1.5"></path><path d="M804.17 250.22L1003.12 200.18" stroke="#132e65" stroke-width="1.5"></path><path d="M812.09 387.2L812.09 387.2" stroke="#132e65" stroke-width="1.5"></path><path d="M848.09 555.23L848.09 555.23" stroke="#132e65" stroke-width="1.5"></path><path d="M848.09 555.23L942.75 533.83" stroke="#132e65" stroke-width="1.5"></path><path d="M848.09 555.23L853.18 706.22" stroke="#132e65" stroke-width="1.5"></path><path d="M848.09 555.23L942 686.13" stroke="#132e65" stroke-width="1.5"></path><path d="M848.09 555.23L812.09 387.2" stroke="#132e65" stroke-width="1.5"></path><path d="M848.09 555.23L648.6 649.69" stroke="#132e65" stroke-width="1.5"></path><path d="M853.18 706.22L853.18 706.22" stroke="#132e65" stroke-width="1.5"></path><path d="M853.18 706.22L942 686.13" stroke="#132e65" stroke-width="1.5"></path><path d="M853.18 706.22L942.75 533.83" stroke="#132e65" stroke-width="1.5"></path><path d="M982.56 -81.56L982.56 -81.56" stroke="#132e65" stroke-width="1.5"></path><path d="M982.56 -81.56L986.81 48.46" stroke="#132e65" stroke-width="1.5"></path><path d="M982.56 -81.56L1147.61 -60.79" stroke="#132e65" stroke-width="1.5"></path><path d="M982.56 -81.56L1115.71 90.93" stroke="#132e65" stroke-width="1.5"></path><path d="M982.56 -81.56L1003.12 200.18" stroke="#132e65" stroke-width="1.5"></path><path d="M986.81 48.46L986.81 48.46" stroke="#132e65" stroke-width="1.5"></path><path d="M986.81 48.46L1115.71 90.93" stroke="#132e65" stroke-width="1.5"></path><path d="M986.81 48.46L1003.12 200.18" stroke="#132e65" stroke-width="1.5"></path><path d="M986.81 48.46L1147.61 -60.79" stroke="#132e65" stroke-width="1.5"></path><path d="M1003.12 200.18L1003.12 200.18" stroke="#132e65" stroke-width="1.5"></path><path d="M1003.12 200.18L1115.71 90.93" stroke="#132e65" stroke-width="1.5"></path><path d="M1003.12 200.18L1160.42 230.89" stroke="#132e65" stroke-width="1.5"></path><path d="M1003.12 200.18L1010.5 399.05" stroke="#132e65" stroke-width="1.5"></path><path d="M1010.5 399.05L1010.5 399.05" stroke="#132e65" stroke-width="1.5"></path><path d="M1010.5 399.05L1105.7 499.59" stroke="#132e65" stroke-width="1.5"></path><path d="M1010.5 399.05L1157.59 370.87" stroke="#132e65" stroke-width="1.5"></path><path d="M1010.5 399.05L942.75 533.83" stroke="#132e65" stroke-width="1.5"></path><path d="M1010.5 399.05L812.09 387.2" stroke="#132e65" stroke-width="1.5"></path><path d="M942.75 533.83L942.75 533.83" stroke="#132e65" stroke-width="1.5"></path><path d="M942 686.13L942 686.13" stroke="#132e65" stroke-width="1.5"></path><path d="M942 686.13L942.75 533.83" stroke="#132e65" stroke-width="1.5"></path><path d="M942 686.13L1161.64 675.15" stroke="#132e65" stroke-width="1.5"></path><path d="M1147.61 -60.79L1147.61 -60.79" stroke="#132e65" stroke-width="1.5"></path><path d="M1147.61 -60.79L1282.87 -85.51" stroke="#132e65" stroke-width="1.5"></path><path d="M1147.61 -60.79L1115.71 90.93" stroke="#132e65" stroke-width="1.5"></path><path d="M1147.61 -60.79L1286.6 43.62" stroke="#132e65" stroke-width="1.5"></path><path d="M1147.61 -60.79L1424.15 -87.07" stroke="#132e65" stroke-width="1.5"></path><path d="M1115.71 90.93L1115.71 90.93" stroke="#132e65" stroke-width="1.5"></path><path d="M1115.71 90.93L1160.42 230.89" stroke="#132e65" stroke-width="1.5"></path><path d="M1160.42 230.89L1160.42 230.89" stroke="#132e65" stroke-width="1.5"></path><path d="M1160.42 230.89L1288.6 258.46" stroke="#132e65" stroke-width="1.5"></path><path d="M1160.42 230.89L1157.59 370.87" stroke="#132e65" stroke-width="1.5"></path><path d="M1157.59 370.87L1157.59 370.87" stroke="#132e65" stroke-width="1.5"></path><path d="M1157.59 370.87L1247.42 376.12" stroke="#132e65" stroke-width="1.5"></path><path d="M1157.59 370.87L1105.7 499.59" stroke="#132e65" stroke-width="1.5"></path><path d="M1105.7 499.59L1105.7 499.59" stroke="#132e65" stroke-width="1.5"></path><path d="M1105.7 499.59L942.75 533.83" stroke="#132e65" stroke-width="1.5"></path><path d="M1105.7 499.59L1161.64 675.15" stroke="#132e65" stroke-width="1.5"></path><path d="M1105.7 499.59L1247.42 376.12" stroke="#132e65" stroke-width="1.5"></path><path d="M1105.7 499.59L1294.41 655.55" stroke="#132e65" stroke-width="1.5"></path><path d="M1161.64 675.15L1161.64 675.15" stroke="#132e65" stroke-width="1.5"></path><path d="M1161.64 675.15L1294.41 655.55" stroke="#132e65" stroke-width="1.5"></path><path d="M1161.64 675.15L942.75 533.83" stroke="#132e65" stroke-width="1.5"></path><path d="M1161.64 675.15L1461.73 641.2" stroke="#132e65" stroke-width="1.5"></path><path d="M1282.87 -85.51L1282.87 -85.51" stroke="#132e65" stroke-width="1.5"></path><path d="M1282.87 -85.51L1286.6 43.62" stroke="#132e65" stroke-width="1.5"></path><path d="M1286.6 43.62L1286.6 43.62" stroke="#132e65" stroke-width="1.5"></path><path d="M1286.6 43.62L1433.81 108.08" stroke="#132e65" stroke-width="1.5"></path><path d="M1288.6 258.46L1288.6 258.46" stroke="#132e65" stroke-width="1.5"></path><path d="M1288.6 258.46L1247.42 376.12" stroke="#132e65" stroke-width="1.5"></path><path d="M1288.6 258.46L1446.07 250.43" stroke="#132e65" stroke-width="1.5"></path><path d="M1288.6 258.46L1407.03 369.91" stroke="#132e65" stroke-width="1.5"></path><path d="M1288.6 258.46L1157.59 370.87" stroke="#132e65" stroke-width="1.5"></path><path d="M1247.42 376.12L1247.42 376.12" stroke="#132e65" stroke-width="1.5"></path><path d="M1294.41 655.55L1294.41 655.55" stroke="#132e65" stroke-width="1.5"></path><path d="M1294.41 655.55L1461.73 641.2" stroke="#132e65" stroke-width="1.5"></path><path d="M1294.41 655.55L1447.47 488.52" stroke="#132e65" stroke-width="1.5"></path><path d="M1424.15 -87.07L1424.15 -87.07" stroke="#132e65" stroke-width="1.5"></path><path d="M1424.15 -87.07L1282.87 -85.51" stroke="#132e65" stroke-width="1.5"></path><path d="M1433.81 108.08L1433.81 108.08" stroke="#132e65" stroke-width="1.5"></path><path d="M1433.81 108.08L1545.07 68.56" stroke="#132e65" stroke-width="1.5"></path><path d="M1433.81 108.08L1446.07 250.43" stroke="#132e65" stroke-width="1.5"></path><path d="M1446.07 250.43L1446.07 250.43" stroke="#132e65" stroke-width="1.5"></path><path d="M1446.07 250.43L1407.03 369.91" stroke="#132e65" stroke-width="1.5"></path><path d="M1446.07 250.43L1603.32 225.13" stroke="#132e65" stroke-width="1.5"></path><path d="M1446.07 250.43L1554.58 395.76" stroke="#132e65" stroke-width="1.5"></path><path d="M1446.07 250.43L1545.07 68.56" stroke="#132e65" stroke-width="1.5"></path><path d="M1407.03 369.91L1407.03 369.91" stroke="#132e65" stroke-width="1.5"></path><path d="M1407.03 369.91L1447.47 488.52" stroke="#132e65" stroke-width="1.5"></path><path d="M1407.03 369.91L1554.58 395.76" stroke="#132e65" stroke-width="1.5"></path><path d="M1447.47 488.52L1447.47 488.52" stroke="#132e65" stroke-width="1.5"></path><path d="M1447.47 488.52L1554.58 395.76" stroke="#132e65" stroke-width="1.5"></path><path d="M1447.47 488.52L1461.73 641.2" stroke="#132e65" stroke-width="1.5"></path><path d="M1447.47 488.52L1599.1 650.53" stroke="#132e65" stroke-width="1.5"></path><path d="M1447.47 488.52L1247.42 376.12" stroke="#132e65" stroke-width="1.5"></path><path d="M1461.73 641.2L1461.73 641.2" stroke="#132e65" stroke-width="1.5"></path><path d="M1461.73 641.2L1599.1 650.53" stroke="#132e65" stroke-width="1.5"></path><path d="M1461.73 641.2L1554.58 395.76" stroke="#132e65" stroke-width="1.5"></path><path d="M1461.73 641.2L1407.03 369.91" stroke="#132e65" stroke-width="1.5"></path><path d="M1570.76 -89.39L1570.76 -89.39" stroke="#132e65" stroke-width="1.5"></path><path d="M1570.76 -89.39L1424.15 -87.07" stroke="#132e65" stroke-width="1.5"></path><path d="M1570.76 -89.39L1545.07 68.56" stroke="#132e65" stroke-width="1.5"></path><path d="M1545.07 68.56L1545.07 68.56" stroke="#132e65" stroke-width="1.5"></path><path d="M1545.07 68.56L1603.32 225.13" stroke="#132e65" stroke-width="1.5"></path><path d="M1545.07 68.56L1424.15 -87.07" stroke="#132e65" stroke-width="1.5"></path><path d="M1603.32 225.13L1603.32 225.13" stroke="#132e65" stroke-width="1.5"></path><path d="M1603.32 225.13L1554.58 395.76" stroke="#132e65" stroke-width="1.5"></path><path d="M1603.32 225.13L1433.81 108.08" stroke="#132e65" stroke-width="1.5"></path><path d="M1554.58 395.76L1554.58 395.76" stroke="#132e65" stroke-width="1.5"></path><path d="M1554.58 395.76L1599.1 650.53" stroke="#132e65" stroke-width="1.5"></path><path d="M1599.1 650.53L1599.1 650.53" stroke="#132e65" stroke-width="1.5"></path><circle r="5" cx="-42.64" cy="401.26" fill="#132e65"></circle><circle r="5" cx="-39.65" cy="535.07" fill="#132e65"></circle><circle r="5" cx="-41.7" cy="698.04" fill="#132e65"></circle><circle r="5" cx="104.1" cy="387.74" fill="#132e65"></circle><circle r="5" cx="110.38" cy="531.68" fill="#132e65"></circle><circle r="5" cx="102.7" cy="649.97" fill="#132e65"></circle><circle r="5" cx="260" cy="410.77" fill="#132e65"></circle><circle r="5" cx="238.76" cy="645.95" fill="#132e65"></circle><circle r="5" cx="383.58" cy="369.62" fill="#132e65"></circle><circle r="5" cx="393.89" cy="522.71" fill="#132e65"></circle><circle r="5" cx="391.22" cy="689.19" fill="#132e65"></circle><circle r="5" cx="547.91" cy="371.19" fill="#132e65"></circle><circle r="5" cx="518.08" cy="551.41" fill="#132e65"></circle><circle r="5" cx="653.77" cy="403.15" fill="#132e65"></circle><circle r="5" cx="711.12" cy="512.26" fill="#132e65"></circle><circle r="5" cx="648.6" cy="649.69" fill="#132e65"></circle><circle r="5" cx="804.17" cy="250.22" fill="#132e65"></circle><circle r="5" cx="812.09" cy="387.2" fill="#132e65"></circle><circle r="5" cx="848.09" cy="555.23" fill="#132e65"></circle><circle r="5" cx="853.18" cy="706.22" fill="#132e65"></circle><circle r="5" cx="982.56" cy="-81.56" fill="#132e65"></circle><circle r="5" cx="986.81" cy="48.46" fill="#132e65"></circle><circle r="5" cx="1003.12" cy="200.18" fill="#132e65"></circle><circle r="5" cx="1010.5" cy="399.05" fill="#132e65"></circle><circle r="5" cx="942.75" cy="533.83" fill="#132e65"></circle><circle r="5" cx="942" cy="686.13" fill="#132e65"></circle><circle r="5" cx="1147.61" cy="-60.79" fill="#132e65"></circle><circle r="5" cx="1115.71" cy="90.93" fill="#132e65"></circle><circle r="5" cx="1160.42" cy="230.89" fill="#132e65"></circle><circle r="5" cx="1157.59" cy="370.87" fill="#132e65"></circle><circle r="5" cx="1105.7" cy="499.59" fill="#132e65"></circle><circle r="5" cx="1161.64" cy="675.15" fill="#132e65"></circle><circle r="5" cx="1282.87" cy="-85.51" fill="#132e65"></circle><circle r="5" cx="1286.6" cy="43.62" fill="#132e65"></circle><circle r="5" cx="1288.6" cy="258.46" fill="#132e65"></circle><circle r="5" cx="1247.42" cy="376.12" fill="#132e65"></circle><circle r="5" cx="1294.41" cy="655.55" fill="#132e65"></circle><circle r="5" cx="1424.15" cy="-87.07" fill="#132e65"></circle><circle r="5" cx="1433.81" cy="108.08" fill="#132e65"></circle><circle r="5" cx="1446.07" cy="250.43" fill="#132e65"></circle><circle r="5" cx="1407.03" cy="369.91" fill="#132e65"></circle><circle r="5" cx="1447.47" cy="488.52" fill="#132e65"></circle><circle r="5" cx="1461.73" cy="641.2" fill="#132e65"></circle><circle r="5" cx="1570.76" cy="-89.39" fill="#132e65"></circle><circle r="5" cx="1545.07" cy="68.56" fill="#132e65"></circle><circle r="5" cx="1603.32" cy="225.13" fill="#132e65"></circle><circle r="5" cx="1554.58" cy="395.76" fill="#132e65"></circle><circle r="5" cx="1599.1" cy="650.53" fill="#132e65"></circle><path d="M-88.74 499.5L-88.74 499.5" stroke="hsl(228.5, 77.2%, 51.5%)" stroke-width="1.5"></path><path d="M-88.74 499.5L-67.91 686.26" stroke="hsl(228.5, 77.2%, 51.5%)" stroke-width="1.5"></path><path d="M-88.74 499.5L108.21 525.68" stroke="hsl(228.5, 77.2%, 51.5%)" stroke-width="1.5"></path><path d="M-88.74 499.5L85.41 675.81" stroke="hsl(228.5, 77.2%, 51.5%)" stroke-width="1.5"></path><path d="M-88.74 499.5L233.08 685.26" stroke="hsl(228.5, 77.2%, 51.5%)" stroke-width="1.5"></path><path d="M85.41 675.81L85.41 675.81" stroke="hsl(228.5, 77.2%, 51.5%)" stroke-width="1.5"></path><path d="M85.41 675.81L233.08 685.26" stroke="hsl(228.5, 77.2%, 51.5%)" stroke-width="1.5"></path><path d="M85.41 675.81L108.21 525.68" stroke="hsl(228.5, 77.2%, 51.5%)" stroke-width="1.5"></path><path d="M85.41 675.81L-67.91 686.26" stroke="hsl(228.5, 77.2%, 51.5%)" stroke-width="1.5"></path><path d="M85.41 675.81L361.8 651.29" stroke="hsl(228.5, 77.2%, 51.5%)" stroke-width="1.5"></path><path d="M494.54 548.31L494.54 548.31" stroke="hsl(228.5, 77.2%, 51.5%)" stroke-width="1.5"></path><path d="M494.54 548.31L558.87 667.87" stroke="hsl(228.5, 77.2%, 51.5%)" stroke-width="1.5"></path><path d="M494.54 548.31L644.19 534.1" stroke="hsl(228.5, 77.2%, 51.5%)" stroke-width="1.5"></path><path d="M833.09 379.7L833.09 379.7" stroke="hsl(228.5, 77.2%, 51.5%)" stroke-width="1.5"></path><path d="M833.09 379.7L943.72 391.93" stroke="hsl(228.5, 77.2%, 51.5%)" stroke-width="1.5"></path><path d="M833.09 379.7L837.59 516.06" stroke="hsl(228.5, 77.2%, 51.5%)" stroke-width="1.5"></path><path d="M833.09 379.7L679.69 391.11" stroke="hsl(228.5, 77.2%, 51.5%)" stroke-width="1.5"></path><path d="M833.09 379.7L976.49 495.02" stroke="hsl(228.5, 77.2%, 51.5%)" stroke-width="1.5"></path><path d="M833.09 379.7L991.97 257.7" stroke="hsl(228.5, 77.2%, 51.5%)" stroke-width="1.5"></path><path d="M1297.4 -87.52L1297.4 -87.52" stroke="hsl(228.5, 77.2%, 51.5%)" stroke-width="1.5"></path><path d="M1297.4 -87.52L1411.73 -51.91" stroke="hsl(228.5, 77.2%, 51.5%)" stroke-width="1.5"></path><path d="M1297.4 -87.52L1242.63 53.53" stroke="hsl(228.5, 77.2%, 51.5%)" stroke-width="1.5"></path><path d="M1297.4 -87.52L1388.72 80.58" stroke="hsl(228.5, 77.2%, 51.5%)" stroke-width="1.5"></path><path d="M1297.4 -87.52L1160.53 56.08" stroke="hsl(228.5, 77.2%, 51.5%)" stroke-width="1.5"></path><path d="M1283.59 401.5L1283.59 401.5" stroke="hsl(228.5, 77.2%, 51.5%)" stroke-width="1.5"></path><path d="M1283.59 401.5L1404.79 397.86" stroke="hsl(228.5, 77.2%, 51.5%)" stroke-width="1.5"></path><path d="M1283.59 401.5L1265.44 529.98" stroke="hsl(228.5, 77.2%, 51.5%)" stroke-width="1.5"></path><path d="M1587.06 243.66L1587.06 243.66" stroke="hsl(228.5, 77.2%, 51.5%)" stroke-width="1.5"></path><path d="M1587.06 243.66L1579.26 371.25" stroke="hsl(228.5, 77.2%, 51.5%)" stroke-width="1.5"></path><path d="M1587.06 243.66L1430.59 200.28" stroke="hsl(228.5, 77.2%, 51.5%)" stroke-width="1.5"></path><path d="M1579.26 371.25L1579.26 371.25" stroke="hsl(228.5, 77.2%, 51.5%)" stroke-width="1.5"></path><path d="M1579.26 371.25L1572.53 515.25" stroke="hsl(228.5, 77.2%, 51.5%)" stroke-width="1.5"></path><path d="M1579.26 371.25L1404.79 397.86" stroke="hsl(228.5, 77.2%, 51.5%)" stroke-width="1.5"></path><path d="M1579.26 371.25L1444.42 499.78" stroke="hsl(228.5, 77.2%, 51.5%)" stroke-width="1.5"></path><path d="M1579.26 371.25L1430.59 200.28" stroke="hsl(228.5, 77.2%, 51.5%)" stroke-width="1.5"></path><path d="M1579.26 371.25L1589.98 78.99" stroke="hsl(228.5, 77.2%, 51.5%)" stroke-width="1.5"></path><path d="M-67.91 686.26L-67.91 686.26" stroke="hsl(228.5, 77.2%, 51.5%)" stroke-width="1.5"></path><path d="M108.21 525.68L108.21 525.68" stroke="hsl(228.5, 77.2%, 51.5%)" stroke-width="1.5"></path><path d="M108.21 525.68L233.08 685.26" stroke="hsl(228.5, 77.2%, 51.5%)" stroke-width="1.5"></path><path d="M108.21 525.68L341.06 540.82" stroke="hsl(228.5, 77.2%, 51.5%)" stroke-width="1.5"></path><path d="M108.21 525.68L-67.91 686.26" stroke="hsl(228.5, 77.2%, 51.5%)" stroke-width="1.5"></path><path d="M233.08 685.26L233.08 685.26" stroke="hsl(228.5, 77.2%, 51.5%)" stroke-width="1.5"></path><path d="M233.08 685.26L361.8 651.29" stroke="hsl(228.5, 77.2%, 51.5%)" stroke-width="1.5"></path><path d="M341.06 540.82L341.06 540.82" stroke="hsl(228.5, 77.2%, 51.5%)" stroke-width="1.5"></path><path d="M341.06 540.82L361.8 651.29" stroke="hsl(228.5, 77.2%, 51.5%)" stroke-width="1.5"></path><path d="M341.06 540.82L494.54 548.31" stroke="hsl(228.5, 77.2%, 51.5%)" stroke-width="1.5"></path><path d="M341.06 540.82L233.08 685.26" stroke="hsl(228.5, 77.2%, 51.5%)" stroke-width="1.5"></path><path d="M341.06 540.82L558.87 667.87" stroke="hsl(228.5, 77.2%, 51.5%)" stroke-width="1.5"></path><path d="M341.06 540.82L85.41 675.81" stroke="hsl(228.5, 77.2%, 51.5%)" stroke-width="1.5"></path><path d="M361.8 651.29L361.8 651.29" stroke="hsl(228.5, 77.2%, 51.5%)" stroke-width="1.5"></path><path d="M361.8 651.29L494.54 548.31" stroke="hsl(228.5, 77.2%, 51.5%)" stroke-width="1.5"></path><path d="M361.8 651.29L558.87 667.87" stroke="hsl(228.5, 77.2%, 51.5%)" stroke-width="1.5"></path><path d="M558.87 667.87L558.87 667.87" stroke="hsl(228.5, 77.2%, 51.5%)" stroke-width="1.5"></path><path d="M558.87 667.87L686.82 657" stroke="hsl(228.5, 77.2%, 51.5%)" stroke-width="1.5"></path><path d="M558.87 667.87L644.19 534.1" stroke="hsl(228.5, 77.2%, 51.5%)" stroke-width="1.5"></path><path d="M679.69 391.11L679.69 391.11" stroke="hsl(228.5, 77.2%, 51.5%)" stroke-width="1.5"></path><path d="M679.69 391.11L644.19 534.1" stroke="hsl(228.5, 77.2%, 51.5%)" stroke-width="1.5"></path><path d="M679.69 391.11L837.59 516.06" stroke="hsl(228.5, 77.2%, 51.5%)" stroke-width="1.5"></path><path d="M679.69 391.11L494.54 548.31" stroke="hsl(228.5, 77.2%, 51.5%)" stroke-width="1.5"></path><path d="M644.19 534.1L644.19 534.1" stroke="hsl(228.5, 77.2%, 51.5%)" stroke-width="1.5"></path><path d="M644.19 534.1L686.82 657" stroke="hsl(228.5, 77.2%, 51.5%)" stroke-width="1.5"></path><path d="M686.82 657L686.82 657" stroke="hsl(228.5, 77.2%, 51.5%)" stroke-width="1.5"></path><path d="M837.59 516.06L837.59 516.06" stroke="hsl(228.5, 77.2%, 51.5%)" stroke-width="1.5"></path><path d="M837.59 516.06L817.99 652.89" stroke="hsl(228.5, 77.2%, 51.5%)" stroke-width="1.5"></path><path d="M837.59 516.06L976.49 495.02" stroke="hsl(228.5, 77.2%, 51.5%)" stroke-width="1.5"></path><path d="M837.59 516.06L943.72 391.93" stroke="hsl(228.5, 77.2%, 51.5%)" stroke-width="1.5"></path><path d="M817.99 652.89L817.99 652.89" stroke="hsl(228.5, 77.2%, 51.5%)" stroke-width="1.5"></path><path d="M817.99 652.89L686.82 657" stroke="hsl(228.5, 77.2%, 51.5%)" stroke-width="1.5"></path><path d="M817.99 652.89L644.19 534.1" stroke="hsl(228.5, 77.2%, 51.5%)" stroke-width="1.5"></path><path d="M817.99 652.89L976.49 495.02" stroke="hsl(228.5, 77.2%, 51.5%)" stroke-width="1.5"></path><path d="M991.97 257.7L991.97 257.7" stroke="hsl(228.5, 77.2%, 51.5%)" stroke-width="1.5"></path><path d="M991.97 257.7L1113.2 195.86" stroke="hsl(228.5, 77.2%, 51.5%)" stroke-width="1.5"></path><path d="M991.97 257.7L943.72 391.93" stroke="hsl(228.5, 77.2%, 51.5%)" stroke-width="1.5"></path><path d="M991.97 257.7L976.49 495.02" stroke="hsl(228.5, 77.2%, 51.5%)" stroke-width="1.5"></path><path d="M991.97 257.7L1160.53 56.08" stroke="hsl(228.5, 77.2%, 51.5%)" stroke-width="1.5"></path><path d="M991.97 257.7L1256.73 212.76" stroke="hsl(228.5, 77.2%, 51.5%)" stroke-width="1.5"></path><path d="M943.72 391.93L943.72 391.93" stroke="hsl(228.5, 77.2%, 51.5%)" stroke-width="1.5"></path><path d="M943.72 391.93L976.49 495.02" stroke="hsl(228.5, 77.2%, 51.5%)" stroke-width="1.5"></path><path d="M976.49 495.02L976.49 495.02" stroke="hsl(228.5, 77.2%, 51.5%)" stroke-width="1.5"></path><path d="M1160.53 56.08L1160.53 56.08" stroke="hsl(228.5, 77.2%, 51.5%)" stroke-width="1.5"></path><path d="M1160.53 56.08L1242.63 53.53" stroke="hsl(228.5, 77.2%, 51.5%)" stroke-width="1.5"></path><path d="M1160.53 56.08L1113.2 195.86" stroke="hsl(228.5, 77.2%, 51.5%)" stroke-width="1.5"></path><path d="M1160.53 56.08L1256.73 212.76" stroke="hsl(228.5, 77.2%, 51.5%)" stroke-width="1.5"></path><path d="M1160.53 56.08L1388.72 80.58" stroke="hsl(228.5, 77.2%, 51.5%)" stroke-width="1.5"></path><path d="M1113.2 195.86L1113.2 195.86" stroke="hsl(228.5, 77.2%, 51.5%)" stroke-width="1.5"></path><path d="M1113.2 195.86L1256.73 212.76" stroke="hsl(228.5, 77.2%, 51.5%)" stroke-width="1.5"></path><path d="M1087.53 654.46L1087.53 654.46" stroke="hsl(228.5, 77.2%, 51.5%)" stroke-width="1.5"></path><path d="M1087.53 654.46L976.49 495.02" stroke="hsl(228.5, 77.2%, 51.5%)" stroke-width="1.5"></path><path d="M1087.53 654.46L1283.58 646.76" stroke="hsl(228.5, 77.2%, 51.5%)" stroke-width="1.5"></path><path d="M1242.63 53.53L1242.63 53.53" stroke="hsl(228.5, 77.2%, 51.5%)" stroke-width="1.5"></path><path d="M1242.63 53.53L1388.72 80.58" stroke="hsl(228.5, 77.2%, 51.5%)" stroke-width="1.5"></path><path d="M1242.63 53.53L1256.73 212.76" stroke="hsl(228.5, 77.2%, 51.5%)" stroke-width="1.5"></path><path d="M1242.63 53.53L1113.2 195.86" stroke="hsl(228.5, 77.2%, 51.5%)" stroke-width="1.5"></path><path d="M1242.63 53.53L1411.73 -51.91" stroke="hsl(228.5, 77.2%, 51.5%)" stroke-width="1.5"></path><path d="M1256.73 212.76L1256.73 212.76" stroke="hsl(228.5, 77.2%, 51.5%)" stroke-width="1.5"></path><path d="M1265.44 529.98L1265.44 529.98" stroke="hsl(228.5, 77.2%, 51.5%)" stroke-width="1.5"></path><path d="M1265.44 529.98L1283.58 646.76" stroke="hsl(228.5, 77.2%, 51.5%)" stroke-width="1.5"></path><path d="M1265.44 529.98L1444.42 499.78" stroke="hsl(228.5, 77.2%, 51.5%)" stroke-width="1.5"></path><path d="M1265.44 529.98L1394.45 668.82" stroke="hsl(228.5, 77.2%, 51.5%)" stroke-width="1.5"></path><path d="M1265.44 529.98L1404.79 397.86" stroke="hsl(228.5, 77.2%, 51.5%)" stroke-width="1.5"></path><path d="M1265.44 529.98L1087.53 654.46" stroke="hsl(228.5, 77.2%, 51.5%)" stroke-width="1.5"></path><path d="M1283.58 646.76L1283.58 646.76" stroke="hsl(228.5, 77.2%, 51.5%)" stroke-width="1.5"></path><path d="M1283.58 646.76L1394.45 668.82" stroke="hsl(228.5, 77.2%, 51.5%)" stroke-width="1.5"></path><path d="M1411.73 -51.91L1411.73 -51.91" stroke="hsl(228.5, 77.2%, 51.5%)" stroke-width="1.5"></path><path d="M1411.73 -51.91L1542.51 -39.92" stroke="hsl(228.5, 77.2%, 51.5%)" stroke-width="1.5"></path><path d="M1411.73 -51.91L1388.72 80.58" stroke="hsl(228.5, 77.2%, 51.5%)" stroke-width="1.5"></path><path d="M1388.72 80.58L1388.72 80.58" stroke="hsl(228.5, 77.2%, 51.5%)" stroke-width="1.5"></path><path d="M1388.72 80.58L1430.59 200.28" stroke="hsl(228.5, 77.2%, 51.5%)" stroke-width="1.5"></path><path d="M1388.72 80.58L1256.73 212.76" stroke="hsl(228.5, 77.2%, 51.5%)" stroke-width="1.5"></path><path d="M1430.59 200.28L1430.59 200.28" stroke="hsl(228.5, 77.2%, 51.5%)" stroke-width="1.5"></path><path d="M1404.79 397.86L1404.79 397.86" stroke="hsl(228.5, 77.2%, 51.5%)" stroke-width="1.5"></path><path d="M1404.79 397.86L1444.42 499.78" stroke="hsl(228.5, 77.2%, 51.5%)" stroke-width="1.5"></path><path d="M1444.42 499.78L1444.42 499.78" stroke="hsl(228.5, 77.2%, 51.5%)" stroke-width="1.5"></path><path d="M1444.42 499.78L1572.53 515.25" stroke="hsl(228.5, 77.2%, 51.5%)" stroke-width="1.5"></path><path d="M1444.42 499.78L1394.45 668.82" stroke="hsl(228.5, 77.2%, 51.5%)" stroke-width="1.5"></path><path d="M1444.42 499.78L1283.59 401.5" stroke="hsl(228.5, 77.2%, 51.5%)" stroke-width="1.5"></path><path d="M1394.45 668.82L1394.45 668.82" stroke="hsl(228.5, 77.2%, 51.5%)" stroke-width="1.5"></path><path d="M1394.45 668.82L1572.53 515.25" stroke="hsl(228.5, 77.2%, 51.5%)" stroke-width="1.5"></path><path d="M1394.45 668.82L1404.79 397.86" stroke="hsl(228.5, 77.2%, 51.5%)" stroke-width="1.5"></path><path d="M1394.45 668.82L1283.59 401.5" stroke="hsl(228.5, 77.2%, 51.5%)" stroke-width="1.5"></path><path d="M1542.51 -39.92L1542.51 -39.92" stroke="hsl(228.5, 77.2%, 51.5%)" stroke-width="1.5"></path><path d="M1542.51 -39.92L1589.98 78.99" stroke="hsl(228.5, 77.2%, 51.5%)" stroke-width="1.5"></path><path d="M1542.51 -39.92L1388.72 80.58" stroke="hsl(228.5, 77.2%, 51.5%)" stroke-width="1.5"></path><path d="M1589.98 78.99L1589.98 78.99" stroke="hsl(228.5, 77.2%, 51.5%)" stroke-width="1.5"></path><path d="M1589.98 78.99L1587.06 243.66" stroke="hsl(228.5, 77.2%, 51.5%)" stroke-width="1.5"></path><path d="M1589.98 78.99L1430.59 200.28" stroke="hsl(228.5, 77.2%, 51.5%)" stroke-width="1.5"></path><path d="M1572.53 515.25L1572.53 515.25" stroke="hsl(228.5, 77.2%, 51.5%)" stroke-width="1.5"></path><path d="M1572.53 515.25L1404.79 397.86" stroke="hsl(228.5, 77.2%, 51.5%)" stroke-width="1.5"></path><path d="M1572.53 515.25L1587.06 243.66" stroke="hsl(228.5, 77.2%, 51.5%)" stroke-width="1.5"></path><circle r="25" cx="-88.74" cy="499.5" fill="url(&quot;#SvgjsRadialGradient1052&quot;)"></circle><circle r="25" cx="85.41" cy="675.81" fill="url(&quot;#SvgjsRadialGradient1052&quot;)"></circle><circle r="25" cx="494.54" cy="548.31" fill="url(&quot;#SvgjsRadialGradient1052&quot;)"></circle><circle r="25" cx="833.09" cy="379.7" fill="url(&quot;#SvgjsRadialGradient1052&quot;)"></circle><circle r="25" cx="1297.4" cy="-87.52" fill="url(&quot;#SvgjsRadialGradient1052&quot;)"></circle><circle r="25" cx="1283.59" cy="401.5" fill="url(&quot;#SvgjsRadialGradient1052&quot;)"></circle><circle r="25" cx="1587.06" cy="243.66" fill="url(&quot;#SvgjsRadialGradient1052&quot;)"></circle><circle r="25" cx="1579.26" cy="371.25" fill="url(&quot;#SvgjsRadialGradient1052&quot;)"></circle><circle r="5" cx="-67.91" cy="686.26" fill="#8b9ad9"></circle><circle r="5" cx="108.21" cy="525.68" fill="#8b9ad9"></circle><circle r="5" cx="233.08" cy="685.26" fill="#8b9ad9"></circle><circle r="5" cx="341.06" cy="540.82" fill="#8b9ad9"></circle><circle r="5" cx="361.8" cy="651.29" fill="#8b9ad9"></circle><circle r="5" cx="558.87" cy="667.87" fill="#8b9ad9"></circle><circle r="5" cx="679.69" cy="391.11" fill="#8b9ad9"></circle><circle r="5" cx="644.19" cy="534.1" fill="#8b9ad9"></circle><circle r="5" cx="686.82" cy="657" fill="#8b9ad9"></circle><circle r="5" cx="837.59" cy="516.06" fill="#8b9ad9"></circle><circle r="5" cx="817.99" cy="652.89" fill="#8b9ad9"></circle><circle r="5" cx="991.97" cy="257.7" fill="#8b9ad9"></circle><circle r="5" cx="943.72" cy="391.93" fill="#8b9ad9"></circle><circle r="5" cx="976.49" cy="495.02" fill="#8b9ad9"></circle><circle r="5" cx="1160.53" cy="56.08" fill="#8b9ad9"></circle><circle r="5" cx="1113.2" cy="195.86" fill="#8b9ad9"></circle><circle r="5" cx="1087.53" cy="654.46" fill="#8b9ad9"></circle><circle r="5" cx="1242.63" cy="53.53" fill="#8b9ad9"></circle><circle r="5" cx="1256.73" cy="212.76" fill="#8b9ad9"></circle><circle r="5" cx="1265.44" cy="529.98" fill="#8b9ad9"></circle><circle r="5" cx="1283.58" cy="646.76" fill="#8b9ad9"></circle><circle r="5" cx="1411.73" cy="-51.91" fill="#8b9ad9"></circle><circle r="5" cx="1388.72" cy="80.58" fill="#8b9ad9"></circle><circle r="5" cx="1430.59" cy="200.28" fill="#8b9ad9"></circle><circle r="5" cx="1404.79" cy="397.86" fill="#8b9ad9"></circle><circle r="5" cx="1444.42" cy="499.78" fill="#8b9ad9"></circle><circle r="5" cx="1394.45" cy="668.82" fill="#8b9ad9"></circle><circle r="5" cx="1542.51" cy="-39.92" fill="#8b9ad9"></circle><circle r="5" cx="1589.98" cy="78.99" fill="#8b9ad9"></circle><circle r="5" cx="1572.53" cy="515.25" fill="#8b9ad9"></circle></g><defs><mask id="SvgjsMask1050"><rect width="1440" height="560" fill="#ffffff"></rect></mask><linearGradient x1="15.28%" y1="-39.29%" x2="84.72%" y2="139.29%" gradientUnits="userSpaceOnUse" id="SvgjsLinearGradient1051"><stop stop-color="#0e2a47" offset="0"></stop><stop stop-color="rgba(0, 69, 158, 1)" offset="1"></stop></linearGradient><radialGradient id="SvgjsRadialGradient1052"><stop stop-color="#ffffff" offset="0.1"></stop><stop stop-color="#1735b3" offset="0.2"></stop><stop stop-color="rgba(23, 53, 179, 0)" offset="1"></stop></radialGradient></defs></svg>